<svg xmlns="http://www.w3.org/2000/svg" viewBox="0 0 1500 860" role="img" aria-labelledby="title desc">
    <title id="title">Accelerating nuclear data delivery</title>
    <desc id="desc">A two-stage system for complex scintillator data with scientists in the loop</desc>
    <defs>
    <marker id="arrow" markerWidth="12" markerHeight="12" refX="10" refY="6" orient="auto"><path d="M0,0 L12,6 L0,12 z" fill="#461D7C"/></marker>
    <marker id="arrowGold" markerWidth="12" markerHeight="12" refX="10" refY="6" orient="auto"><path d="M0,0 L12,6 L0,12 z" fill="#FDD023"/></marker>
    <linearGradient id="network" x1="0" x2="1"><stop offset="0" stop-color="#1769AA"/><stop offset="1" stop-color="#461D7C"/></linearGradient>
    <filter id="shadow" x="-20%" y="-20%" width="140%" height="140%"><feDropShadow dx="0" dy="8" stdDeviation="12" flood-color="#25103D" flood-opacity="0.14"/></filter>
  </defs>
    <rect width="1500" height="860" fill="#FBFAF8"/>
    <text x="44" y="58" font-family="Arial, Helvetica, sans-serif" font-size="38" font-weight="850" fill="#25103D" text-anchor="start">Accelerating nuclear data delivery</text>
    <text x="44" y="92" font-family="Arial, Helvetica, sans-serif" font-size="20" font-weight="500" fill="#5F5965" text-anchor="start">Deep neural networks solve inverse problems before expert-reviewed model refinement</text>
    <rect x="35" y="125" width="430" height="680" rx="26" fill="#EDF6FC" stroke="#1769AA" stroke-width="3"/><rect x="35" y="125" width="430" height="92" rx="26" fill="#1769AA"/><rect x="35" y="191" width="430" height="26" fill="#1769AA"/><text x="250" y="167" font-family="Arial, Helvetica, sans-serif" font-size="31" font-weight="800" fill="#FFFFFF" text-anchor="middle">1. Measurements</text><text x="250" y="200" font-family="Arial, Helvetica, sans-serif" font-size="17" font-weight="500" fill="#FFFFFF" text-anchor="middle">High-complexity detector data</text>
   <rect x="535" y="125" width="430" height="680" rx="26" fill="#FFF8D8" stroke="#461D7C" stroke-width="3"/><rect x="535" y="125" width="430" height="92" rx="26" fill="#461D7C"/><rect x="535" y="191" width="430" height="26" fill="#461D7C"/><text x="750" y="167" font-family="Arial, Helvetica, sans-serif" font-size="31" font-weight="800" fill="#FFFFFF" text-anchor="middle">2. Physics-expert AI</text><text x="750" y="200" font-family="Arial, Helvetica, sans-serif" font-size="17" font-weight="500" fill="#FFFFFF" text-anchor="middle">Inference followed by expert refinement</text>
   <rect x="1035" y="125" width="430" height="680" rx="26" fill="#EAF7F3" stroke="#16796F" stroke-width="3"/><rect x="1035" y="125" width="430" height="92" rx="26" fill="#16796F"/><rect x="1035" y="191" width="430" height="26" fill="#16796F"/><text x="1250" y="167" font-family="Arial, Helvetica, sans-serif" font-size="31" font-weight="800" fill="#FFFFFF" text-anchor="middle">3. Reviewed results</text><text x="1250" y="200" font-family="Arial, Helvetica, sans-serif" font-size="17" font-weight="500" fill="#FFFFFF" text-anchor="middle">Faster, traceable nuclear data</text>
   <path d="M472 465 H520" stroke="#461D7C" stroke-width="7" marker-end="url(#arrow)"/>
   <path d="M972 465 H1020" stroke="#461D7C" stroke-width="7" marker-end="url(#arrow)"/>

   <text x="250" y="252" font-family="Arial, Helvetica, sans-serif" font-size="24" font-weight="800" fill="#1769AA" text-anchor="middle">MTAS</text>
   <text x="250" y="280" font-family="Arial, Helvetica, sans-serif" font-size="18" font-weight="500" fill="#5F5965" text-anchor="middle">beta-decay energy-time tensors</text>
   <rect x="95" y="300" width="310" height="132" rx="14" fill="#FFFFFF" stroke="#D9D3DE" stroke-width="2"/>
   <rect x="115" y="314" width="14" height="9" rx="2" fill="#6BAED6"/><rect x="133" y="314" width="14" height="9" rx="2" fill="#1769AA"/><rect x="151" y="314" width="14" height="9" rx="2" fill="#1769AA"/><rect x="169" y="314" width="14" height="9" rx="2" fill="#1769AA"/><rect x="187" y="314" width="14" height="9" rx="2" fill="#6BAED6"/><rect x="205" y="314" width="14" height="9" rx="2" fill="#6BAED6"/><rect x="223" y="314" width="14" height="9" rx="2" fill="#D9ECF7"/><rect x="241" y="314" width="14" height="9" rx="2" fill="#D9ECF7"/><rect x="259" y="314" width="14" height="9" rx="2" fill="#D9ECF7"/><rect x="277" y="314" width="14" height="9" rx="2" fill="#D9ECF7"/><rect x="295" y="314" width="14" height="9" rx="2" fill="#D9ECF7"/><rect x="313" y="314" width="14" height="9" rx="2" fill="#D9ECF7"/><rect x="331" y="314" width="14" height="9" rx="2" fill="#D9ECF7"/><rect x="349" y="314" width="14" height="9" rx="2" fill="#D9ECF7"/><rect x="367" y="314" width="14" height="9" rx="2" fill="#D9ECF7"/><rect x="115" y="325" width="14" height="9" rx="2" fill="#6BAED6"/><rect x="133" y="325" width="14" height="9" rx="2" fill="#6BAED6"/><rect x="151" y="325" width="14" height="9" rx="2" fill="#1769AA"/><rect x="169" y="325" width="14" height="9" rx="2" fill="#1769AA"/><rect x="187" y="325" width="14" height="9" rx="2" fill="#1769AA"/><rect x="205" y="325" width="14" height="9" rx="2" fill="#6BAED6"/><rect x="223" y="325" width="14" height="9" rx="2" fill="#6BAED6"/><rect x="241" y="325" width="14" height="9" rx="2" fill="#D9ECF7"/><rect x="259" y="325" width="14" height="9" rx="2" fill="#D9ECF7"/><rect x="277" y="325" width="14" height="9" rx="2" fill="#D9ECF7"/><rect x="295" y="325" width="14" height="9" rx="2" fill="#D9ECF7"/><rect x="313" y="325" width="14" height="9" rx="2" fill="#D9ECF7"/><rect x="331" y="325" width="14" height="9" rx="2" fill="#D9ECF7"/><rect x="349" y="325" width="14" height="9" rx="2" fill="#D9ECF7"/><rect x="367" y="325" width="14" height="9" rx="2" fill="#D9ECF7"/><rect x="115" y="336" width="14" height="9" rx="2" fill="#D9ECF7"/><rect x="133" y="336" width="14" height="9" rx="2" fill="#6BAED6"/><rect x="151" y="336" width="14" height="9" rx="2" fill="#6BAED6"/><rect x="169" y="336" width="14" height="9" rx="2" fill="#1769AA"/><rect x="187" y="336" width="14" height="9" rx="2" fill="#1769AA"/><rect x="205" y="336" width="14" height="9" rx="2" fill="#1769AA"/><rect x="223" y="336" width="14" height="9" rx="2" fill="#1769AA"/><rect x="241" y="336" width="14" height="9" rx="2" fill="#6BAED6"/><rect x="259" y="336" width="14" height="9" rx="2" fill="#D9ECF7"/><rect x="277" y="336" width="14" height="9" rx="2" fill="#D9ECF7"/><rect x="295" y="336" width="14" height="9" rx="2" fill="#D9ECF7"/><rect x="313" y="336" width="14" height="9" rx="2" fill="#D9ECF7"/><rect x="331" y="336" width="14" height="9" rx="2" fill="#D9ECF7"/><rect x="349" y="336" width="14" height="9" rx="2" fill="#D9ECF7"/><rect x="367" y="336" width="14" height="9" rx="2" fill="#D9ECF7"/><rect x="115" y="347" width="14" height="9" rx="2" fill="#D9ECF7"/><rect x="133" y="347" width="14" height="9" rx="2" fill="#D9ECF7"/><rect x="151" y="347" width="14" height="9" rx="2" fill="#D9ECF7"/><rect x="169" y="347" width="14" height="9" rx="2" fill="#6BAED6"/><rect x="187" y="347" width="14" height="9" rx="2" fill="#1769AA"/><rect x="205" y="347" width="14" height="9" rx="2" fill="#1769AA"/><rect x="223" y="347" width="14" height="9" rx="2" fill="#1769AA"/><rect x="241" y="347" width="14" height="9" rx="2" fill="#1769AA"/><rect x="259" y="347" width="14" height="9" rx="2" fill="#6BAED6"/><rect x="277" y="347" width="14" height="9" rx="2" fill="#6BAED6"/><rect x="295" y="347" width="14" height="9" rx="2" fill="#D9ECF7"/><rect x="313" y="347" width="14" height="9" rx="2" fill="#D9ECF7"/><rect x="331" y="347" width="14" height="9" rx="2" fill="#D9ECF7"/><rect x="349" y="347" width="14" height="9" rx="2" fill="#D9ECF7"/><rect x="367" y="347" width="14" height="9" rx="2" fill="#D9ECF7"/><rect x="115" y="358" width="14" height="9" rx="2" fill="#D9ECF7"/><rect x="133" y="358" width="14" height="9" rx="2" fill="#D9ECF7"/><rect x="151" y="358" width="14" height="9" rx="2" fill="#D9ECF7"/><rect x="169" y="358" width="14" height="9" rx="2" fill="#D9ECF7"/><rect x="187" y="358" width="14" height="9" rx="2" fill="#6BAED6"/><rect x="205" y="358" width="14" height="9" rx="2" fill="#6BAED6"/><rect x="223" y="358" width="14" height="9" rx="2" fill="#1769AA"/><rect x="241" y="358" width="14" height="9" rx="2" fill="#1769AA"/><rect x="259" y="358" width="14" height="9" rx="2" fill="#1769AA"/><rect x="277" y="358" width="14" height="9" rx="2" fill="#6BAED6"/><rect x="295" y="358" width="14" height="9" rx="2" fill="#6BAED6"/><rect x="313" y="358" width="14" height="9" rx="2" fill="#D9ECF7"/><rect x="331" y="358" width="14" height="9" rx="2" fill="#D9ECF7"/><rect x="349" y="358" width="14" height="9" rx="2" fill="#D9ECF7"/><rect x="367" y="358" width="14" height="9" rx="2" fill="#D9ECF7"/><rect x="115" y="369" width="14" height="9" rx="2" fill="#D9ECF7"/><rect x="133" y="369" width="14" height="9" rx="2" fill="#D9ECF7"/><rect x="151" y="369" width="14" height="9" rx="2" fill="#D9ECF7"/><rect x="169" y="369" width="14" height="9" rx="2" fill="#D9ECF7"/><rect x="187" y="369" width="14" height="9" rx="2" fill="#D9ECF7"/><rect x="205" y="369" width="14" height="9" rx="2" fill="#6BAED6"/><rect x="223" y="369" width="14" height="9" rx="2" fill="#6BAED6"/><rect x="241" y="369" width="14" height="9" rx="2" fill="#1769AA"/><rect x="259" y="369" width="14" height="9" rx="2" fill="#1769AA"/><rect x="277" y="369" width="14" height="9" rx="2" fill="#1769AA"/><rect x="295" y="369" width="14" height="9" rx="2" fill="#6BAED6"/><rect x="313" y="369" width="14" height="9" rx="2" fill="#6BAED6"/><rect x="331" y="369" width="14" height="9" rx="2" fill="#D9ECF7"/><rect x="349" y="369" width="14" height="9" rx="2" fill="#D9ECF7"/><rect x="367" y="369" width="14" height="9" rx="2" fill="#D9ECF7"/><rect x="115" y="380" width="14" height="9" rx="2" fill="#D9ECF7"/><rect x="133" y="380" width="14" height="9" rx="2" fill="#D9ECF7"/><rect x="151" y="380" width="14" height="9" rx="2" fill="#D9ECF7"/><rect x="169" y="380" width="14" height="9" rx="2" fill="#D9ECF7"/><rect x="187" y="380" width="14" height="9" rx="2" fill="#D9ECF7"/><rect x="205" y="380" width="14" height="9" rx="2" fill="#D9ECF7"/><rect x="223" y="380" width="14" height="9" rx="2" fill="#6BAED6"/><rect x="241" y="380" width="14" height="9" rx="2" fill="#6BAED6"/><rect x="259" y="380" width="14" height="9" rx="2" fill="#1769AA"/><rect x="277" y="380" width="14" height="9" rx="2" fill="#1769AA"/><rect x="295" y="380" width="14" height="9" rx="2" fill="#1769AA"/><rect x="313" y="380" width="14" height="9" rx="2" fill="#6BAED6"/><rect x="331" y="380" width="14" height="9" rx="2" fill="#6BAED6"/><rect x="349" y="380" width="14" height="9" rx="2" fill="#D9ECF7"/><rect x="367" y="380" width="14" height="9" rx="2" fill="#D9ECF7"/><rect x="115" y="391" width="14" height="9" rx="2" fill="#D9ECF7"/><rect x="133" y="391" width="14" height="9" rx="2" fill="#D9ECF7"/><rect x="151" y="391" width="14" height="9" rx="2" fill="#D9ECF7"/><rect x="169" y="391" width="14" height="9" rx="2" fill="#D9ECF7"/><rect x="187" y="391" width="14" height="9" rx="2" fill="#D9ECF7"/><rect x="205" y="391" width="14" height="9" rx="2" fill="#D9ECF7"/><rect x="223" y="391" width="14" height="9" rx="2" fill="#D9ECF7"/><rect x="241" y="391" width="14" height="9" rx="2" fill="#6BAED6"/><rect x="259" y="391" width="14" height="9" rx="2" fill="#6BAED6"/><rect x="277" y="391" width="14" height="9" rx="2" fill="#1769AA"/><rect x="295" y="391" width="14" height="9" rx="2" fill="#1769AA"/><rect x="313" y="391" width="14" height="9" rx="2" fill="#1769AA"/><rect x="331" y="391" width="14" height="9" rx="2" fill="#1769AA"/><rect x="349" y="391" width="14" height="9" rx="2" fill="#6BAED6"/><rect x="367" y="391" width="14" height="9" rx="2" fill="#D9ECF7"/><rect x="115" y="402" width="14" height="9" rx="2" fill="#D9ECF7"/><rect x="133" y="402" width="14" height="9" rx="2" fill="#D9ECF7"/><rect x="151" y="402" width="14" height="9" rx="2" fill="#D9ECF7"/><rect x="169" y="402" width="14" height="9" rx="2" fill="#D9ECF7"/><rect x="187" y="402" width="14" height="9" rx="2" fill="#D9ECF7"/><rect x="205" y="402" width="14" height="9" rx="2" fill="#D9ECF7"/><rect x="223" y="402" width="14" height="9" rx="2" fill="#D9ECF7"/><rect x="241" y="402" width="14" height="9" rx="2" fill="#D9ECF7"/><rect x="259" y="402" width="14" height="9" rx="2" fill="#D9ECF7"/><rect x="277" y="402" width="14" height="9" rx="2" fill="#6BAED6"/><rect x="295" y="402" width="14" height="9" rx="2" fill="#1769AA"/><rect x="313" y="402" width="14" height="9" rx="2" fill="#1769AA"/><rect x="331" y="402" width="14" height="9" rx="2" fill="#1769AA"/><rect x="349" y="402" width="14" height="9" rx="2" fill="#1769AA"/><rect x="367" y="402" width="14" height="9" rx="2" fill="#6BAED6"/>
   <text x="250" y="478" font-family="Arial, Helvetica, sans-serif" font-size="24" font-weight="800" fill="#1769AA" text-anchor="middle">ODeSA</text>
   <text x="250" y="506" font-family="Arial, Helvetica, sans-serif" font-size="18" font-weight="500" fill="#5F5965" text-anchor="middle">neutron detector spectra</text>
   <rect x="95" y="528" width="310" height="118" rx="14" fill="#FFFFFF" stroke="#D9D3DE" stroke-width="2"/>
   <line x1="120" y1="622" x2="375" y2="622" stroke="#17131C" stroke-width="2"/>
    <line x1="120" y1="548" x2="120" y2="622" stroke="#17131C" stroke-width="2"/>
    <path d="M120 614 C 158.25 604, 171 560, 199.05 582 S 234.75 608, 257.70000000000005 608 S 293.4 556, 308.7 590 S 341.85 604, 375 568" fill="none" stroke="#1769AA" stroke-width="6" stroke-linecap="round"/>
   <rect x="82" y="672" width="145" height="50" rx="25" fill="#FFFFFF" stroke="#A9D0E8" stroke-width="2"/><text x="154.5" y="705" font-family="Arial, Helvetica, sans-serif" font-size="19" font-weight="700" fill="#1769AA" text-anchor="middle">Response matrix</text>
   <rect x="237" y="672" width="145" height="50" rx="25" fill="#FFFFFF" stroke="#A9D0E8" stroke-width="2"/><text x="309.5" y="705" font-family="Arial, Helvetica, sans-serif" font-size="19" font-weight="700" fill="#1769AA" text-anchor="middle">Prior studies</text>
   <rect x="120" y="736" width="225" height="50" rx="25" fill="#FFFFFF" stroke="#A9D0E8" stroke-width="2"/><text x="232.5" y="769" font-family="Arial, Helvetica, sans-serif" font-size="19" font-weight="700" fill="#1769AA" text-anchor="middle">Nuclear databases</text>

   <rect x="580" y="238" width="340" height="198" rx="20" fill="#FFFFFF" stroke="#461D7C" stroke-width="3" filter="url(#shadow)"/>
   <text x="750" y="274" font-family="Arial, Helvetica, sans-serif" font-size="20" font-weight="800" fill="#461D7C" text-anchor="middle">Stage 1</text>
   <text x="750" y="306" font-family="Arial, Helvetica, sans-serif" font-size="24" font-weight="800" fill="#25103D" text-anchor="middle">Solve inverse problems</text>
   <line x1="697.36" y1="336.76" x2="750" y2="325.56" stroke="#461D7C" stroke-width="1.0080000000000002" opacity="0.22"/><line x1="697.36" y1="336.76" x2="750" y2="346.28" stroke="#461D7C" stroke-width="1.0080000000000002" opacity="0.22"/><line x1="697.36" y1="336.76" x2="750" y2="367" stroke="#461D7C" stroke-width="1.0080000000000002" opacity="0.22"/><line x1="697.36" y1="336.76" x2="750" y2="387.72" stroke="#461D7C" stroke-width="1.0080000000000002" opacity="0.22"/><line x1="697.36" y1="336.76" x2="750" y2="408.44" stroke="#461D7C" stroke-width="1.0080000000000002" opacity="0.22"/><line x1="697.36" y1="356.92" x2="750" y2="325.56" stroke="#461D7C" stroke-width="1.0080000000000002" opacity="0.22"/><line x1="697.36" y1="356.92" x2="750" y2="346.28" stroke="#461D7C" stroke-width="1.0080000000000002" opacity="0.22"/><line x1="697.36" y1="356.92" x2="750" y2="367" stroke="#461D7C" stroke-width="1.0080000000000002" opacity="0.22"/><line x1="697.36" y1="356.92" x2="750" y2="387.72" stroke="#461D7C" stroke-width="1.0080000000000002" opacity="0.22"/><line x1="697.36" y1="356.92" x2="750" y2="408.44" stroke="#461D7C" stroke-width="1.0080000000000002" opacity="0.22"/><line x1="697.36" y1="377.08" x2="750" y2="325.56" stroke="#461D7C" stroke-width="1.0080000000000002" opacity="0.22"/><line x1="697.36" y1="377.08" x2="750" y2="346.28" stroke="#461D7C" stroke-width="1.0080000000000002" opacity="0.22"/><line x1="697.36" y1="377.08" x2="750" y2="367" stroke="#461D7C" stroke-width="1.0080000000000002" opacity="0.22"/><line x1="697.36" y1="377.08" x2="750" y2="387.72" stroke="#461D7C" stroke-width="1.0080000000000002" opacity="0.22"/><line x1="697.36" y1="377.08" x2="750" y2="408.44" stroke="#461D7C" stroke-width="1.0080000000000002" opacity="0.22"/><line x1="697.36" y1="397.24" x2="750" y2="325.56" stroke="#461D7C" stroke-width="1.0080000000000002" opacity="0.22"/><line x1="697.36" y1="397.24" x2="750" y2="346.28" stroke="#461D7C" stroke-width="1.0080000000000002" opacity="0.22"/><line x1="697.36" y1="397.24" x2="750" y2="367" stroke="#461D7C" stroke-width="1.0080000000000002" opacity="0.22"/><line x1="697.36" y1="397.24" x2="750" y2="387.72" stroke="#461D7C" stroke-width="1.0080000000000002" opacity="0.22"/><line x1="697.36" y1="397.24" x2="750" y2="408.44" stroke="#461D7C" stroke-width="1.0080000000000002" opacity="0.22"/><line x1="750" y1="325.56" x2="802.64" y2="343.48" stroke="#461D7C" stroke-width="1.0080000000000002" opacity="0.22"/><line x1="750" y1="325.56" x2="802.64" y2="367" stroke="#461D7C" stroke-width="1.0080000000000002" opacity="0.22"/><line x1="750" y1="325.56" x2="802.64" y2="390.52" stroke="#461D7C" stroke-width="1.0080000000000002" opacity="0.22"/><line x1="750" y1="346.28" x2="802.64" y2="343.48" stroke="#461D7C" stroke-width="1.0080000000000002" opacity="0.22"/><line x1="750" y1="346.28" x2="802.64" y2="367" stroke="#461D7C" stroke-width="1.0080000000000002" opacity="0.22"/><line x1="750" y1="346.28" x2="802.64" y2="390.52" stroke="#461D7C" stroke-width="1.0080000000000002" opacity="0.22"/><line x1="750" y1="367" x2="802.64" y2="343.48" stroke="#461D7C" stroke-width="1.0080000000000002" opacity="0.22"/><line x1="750" y1="367" x2="802.64" y2="367" stroke="#461D7C" stroke-width="1.0080000000000002" opacity="0.22"/><line x1="750" y1="367" x2="802.64" y2="390.52" stroke="#461D7C" stroke-width="1.0080000000000002" opacity="0.22"/><line x1="750" y1="387.72" x2="802.64" y2="343.48" stroke="#461D7C" stroke-width="1.0080000000000002" opacity="0.22"/><line x1="750" y1="387.72" x2="802.64" y2="367" stroke="#461D7C" stroke-width="1.0080000000000002" opacity="0.22"/><line x1="750" y1="387.72" x2="802.64" y2="390.52" stroke="#461D7C" stroke-width="1.0080000000000002" opacity="0.22"/><line x1="750" y1="408.44" x2="802.64" y2="343.48" stroke="#461D7C" stroke-width="1.0080000000000002" opacity="0.22"/><line x1="750" y1="408.44" x2="802.64" y2="367" stroke="#461D7C" stroke-width="1.0080000000000002" opacity="0.22"/><line x1="750" y1="408.44" x2="802.64" y2="390.52" stroke="#461D7C" stroke-width="1.0080000000000002" opacity="0.22"/><circle cx="697.36" cy="336.76" r="5.6000000000000005" fill="#FFFFFF" stroke="#461D7C" stroke-width="1.6800000000000002"/><circle cx="697.36" cy="356.92" r="5.6000000000000005" fill="#FFFFFF" stroke="#461D7C" stroke-width="1.6800000000000002"/><circle cx="697.36" cy="377.08" r="5.6000000000000005" fill="#FFFFFF" stroke="#461D7C" stroke-width="1.6800000000000002"/><circle cx="697.36" cy="397.24" r="5.6000000000000005" fill="#FFFFFF" stroke="#461D7C" stroke-width="1.6800000000000002"/><circle cx="750" cy="325.56" r="5.6000000000000005" fill="#FDD023" stroke="#461D7C" stroke-width="1.6800000000000002"/><circle cx="750" cy="346.28" r="5.6000000000000005" fill="#FDD023" stroke="#461D7C" stroke-width="1.6800000000000002"/><circle cx="750" cy="367" r="5.6000000000000005" fill="#FDD023" stroke="#461D7C" stroke-width="1.6800000000000002"/><circle cx="750" cy="387.72" r="5.6000000000000005" fill="#FDD023" stroke="#461D7C" stroke-width="1.6800000000000002"/><circle cx="750" cy="408.44" r="5.6000000000000005" fill="#FDD023" stroke="#461D7C" stroke-width="1.6800000000000002"/><circle cx="802.64" cy="343.48" r="5.6000000000000005" fill="#FFFFFF" stroke="#461D7C" stroke-width="1.6800000000000002"/><circle cx="802.64" cy="367" r="5.6000000000000005" fill="#FFFFFF" stroke="#461D7C" stroke-width="1.6800000000000002"/><circle cx="802.64" cy="390.52" r="5.6000000000000005" fill="#FFFFFF" stroke="#461D7C" stroke-width="1.6800000000000002"/>
   <path d="M750 448 V478" stroke="#461D7C" stroke-width="5" marker-end="url(#arrow)"/>
   <rect x="580" y="495" width="340" height="188" rx="20" fill="#FFFFFF" stroke="#461D7C" stroke-width="3" filter="url(#shadow)"/>
   <text x="750" y="535" font-family="Arial, Helvetica, sans-serif" font-size="20" font-weight="800" fill="#461D7C" text-anchor="middle">Stage 2</text>
   <text x="750" y="568" font-family="Arial, Helvetica, sans-serif" font-size="24" font-weight="800" fill="#25103D" text-anchor="middle">Nuclear-physics AI agent</text>
   <text x="750" y="604" font-family="Arial, Helvetica, sans-serif" font-size="18" font-weight="500" fill="#5F5965" text-anchor="middle"><tspan x="750" dy="0">consults literature and data</tspan><tspan x="750" dy="24.3">proposes model updates</tspan></text>
   <path d="M885 705 C 965 760, 935 790, 830 748" fill="none" stroke="#FDD023" stroke-width="8" marker-end="url(#arrowGold)"/>
   <path d="M615 705 C 535 760, 565 790, 670 748" fill="none" stroke="#FDD023" stroke-width="8" marker-end="url(#arrowGold)"/>
   <rect x="650" y="714" width="200" height="50" rx="25" fill="#FDD023" stroke="#FDD023" stroke-width="2"/><text x="750" y="747" font-family="Arial, Helvetica, sans-serif" font-size="19" font-weight="700" fill="#25103D" text-anchor="middle">Scientist feedback</text>

   <text x="1250" y="250" font-family="Arial, Helvetica, sans-serif" font-size="24" font-weight="800" fill="#16796F" text-anchor="middle">Parameter inference</text>
   <rect x="1090" y="272" width="320" height="150" rx="16" fill="#FFFFFF" stroke="#D9D3DE" stroke-width="2"/>
   <line x1="1120" y1="386" x2="1380" y2="386" stroke="#17131C" stroke-width="2"/>
    <line x1="1120" y1="294" x2="1120" y2="386" stroke="#17131C" stroke-width="2"/>
    <path d="M1120 378 C 1159 368, 1172 306, 1200.6 328 S 1237 372, 1260.4 354 S 1296.8 302, 1312.4 336 S 1346.2 368, 1380 314" fill="none" stroke="#16796F" stroke-width="6" stroke-linecap="round"/>
   <path d="M1120 370 C 1190 360, 1220 305, 1260 328 S 1330 360, 1380 313" fill="none" stroke="#B52B3A" stroke-width="4" stroke-dasharray="10 8"/>
   <text x="1250" y="427" font-family="Arial, Helvetica, sans-serif" font-size="24" font-weight="800" fill="#16796F" text-anchor="middle">Every proposal is reviewed</text>
   <rect x="1090" y="455" width="320" height="160" rx="16" fill="#FFFFFF" stroke="#D9D3DE" stroke-width="2"/>
   <rect x="1115" y="485" width="120" height="50" rx="25" fill="#EAF7F3" stroke="#8DCABD" stroke-width="2"/><text x="1175" y="518" font-family="Arial, Helvetica, sans-serif" font-size="19" font-weight="700" fill="#16796F" text-anchor="middle">Accept</text>
   <rect x="1245" y="485" width="140" height="50" rx="25" fill="#FFF8D8" stroke="#E8D474" stroke-width="2"/><text x="1315" y="518" font-family="Arial, Helvetica, sans-serif" font-size="19" font-weight="700" fill="#25103D" text-anchor="middle">Revise</text>
   <text x="1250" y="570" font-family="Arial, Helvetica, sans-serif" font-size="19" font-weight="600" fill="#5F5965" text-anchor="middle"><tspan x="1250" dy="0">Logged decisions expose</tspan><tspan x="1250" dy="23.75">and reduce human bias</tspan></text>
   <rect x="1095" y="655" width="140" height="50" rx="25" fill="#FFFFFF" stroke="#8DCABD" stroke-width="2"/><text x="1165" y="688" font-family="Arial, Helvetica, sans-serif" font-size="19" font-weight="700" fill="#16796F" text-anchor="middle">Faster</text>
   <rect x="1245" y="655" width="160" height="50" rx="25" fill="#FFFFFF" stroke="#8DCABD" stroke-width="2"/><text x="1325" y="688" font-family="Arial, Helvetica, sans-serif" font-size="19" font-weight="700" fill="#16796F" text-anchor="middle">Reproducible</text>
   <rect x="1125" y="722" width="250" height="50" rx="25" fill="#FFFFFF" stroke="#8DCABD" stroke-width="2"/><text x="1250" y="755" font-family="Arial, Helvetica, sans-serif" font-size="19" font-weight="700" fill="#16796F" text-anchor="middle">Open analysis framework</text>
  </svg>
